<?xml version="1.0" encoding="UTF-8"?>
<svg id="uuid-398699ea-b3e6-4ca1-a5c2-0709f7047df1" data-name="Capa 2" xmlns="http://www.w3.org/2000/svg" width="103.18" height="35" viewBox="0 0 103.18 35">
  <g id="uuid-851cd6a2-fcf2-48ff-a46d-74e9dc9690b5" data-name="Capa 1">
    <g id="uuid-8d113e6b-cf27-41d2-8ab8-e3d24f85926a" data-name="g445-0">
      <path id="uuid-fd3e8e62-902b-4eb6-b7bb-e4902157e780" data-name="path413-5" d="M40.31,8.38c-.89.03-1.4.86-1.98,1.41-.54.59-1.4,1.14-1.39,2.05-.01,1.04,1.11,1.95,2.12,1.59.75-.24,1.18-.95,1.74-1.45.58-.57,1.38-1.16,1.31-2.07-.07-.89-.9-1.63-1.8-1.53h0ZM78.16,13.65c-3.01.13-5.77,2.1-7.06,4.79-1.22,2.45-1.21,5.48.09,7.9,1.43,2.74,4.41,4.64,7.52,4.59,2.19.02,4.37-.84,5.93-2.38.65-.66.84-1.8.22-2.54-.63-.79-1.86-.78-2.62-.19-.63.52-1.32.99-2.12,1.2-1.63.49-3.55.08-4.72-1.2-.79-.81-1.29-2-1.37-3.17-.13-1.51.44-3.21,1.65-4.22,1.49-1.31,3.84-1.5,5.51-.41.67.35,1.14,1.05,1.93,1.15.77.17,1.66-.19,1.97-.95.42-.89-.02-1.98-.81-2.51-1.67-1.47-3.91-2.2-6.13-2.07h0ZM92.6,13.8c-3.28.63-6.06,3.32-6.77,6.6-.68,2.89.29,6.09,2.46,8.12,2.18,2.11,5.5,2.94,8.41,2.07,3.06-.87,5.57-3.52,6.16-6.66.57-2.83-.44-5.9-2.55-7.86-1.06-1.02-2.38-1.74-3.79-2.15-.64.66-1.27,1.32-1.91,1.98-.61-.71-1.22-1.42-1.84-2.13-.06.01-.11.03-.17.04h0ZM37.09,13.86c-3.24.73-5.94,3.46-6.57,6.73-.63,2.96.47,6.21,2.77,8.18,2.28,2.03,5.67,2.71,8.55,1.69,2.98-1.01,5.34-3.72,5.8-6.86.46-2.88-.69-5.94-2.92-7.82-1.06-.92-2.35-1.57-3.7-1.92-.65.68-1.31,1.35-1.96,2.03-.6-.7-1.19-1.39-1.79-2.09-.06.02-.12.03-.18.05h0ZM61.6,13.85c-1.09-.03-2.05,1-1.92,2.08v7.79c-2.54-3.11-5.06-6.25-7.63-9.34-.84-.85-2.47-.64-3,.46-.41.78-.17,1.69-.23,2.53,0,3.9-.02,7.8.02,11.7.12,1.2,1.55,2,2.64,1.48.85-.34,1.3-1.32,1.17-2.2,0-2.55,0-5.1,0-7.65,2.57,3.14,5.1,6.3,7.7,9.42.71.72,2.08.84,2.73-.02.63-.8.4-1.87.44-2.81,0-3.94.02-7.89-.02-11.83-.09-.92-.98-1.64-1.89-1.62h0ZM27.2,13.86c-1.05.05-1.88,1.1-1.73,2.12,0,4.36-.02,8.73.02,13.09.12,1.21,1.59,2.01,2.67,1.47.81-.34,1.25-1.27,1.13-2.13,0-4.32.02-8.64-.02-12.95-.12-.97-1.11-1.7-2.07-1.6h0ZM67.04,13.86c-1.05.05-1.87,1.1-1.73,2.12,0,4.36-.02,8.73.02,13.09.12,1.21,1.59,2.01,2.67,1.47.81-.34,1.25-1.28,1.13-2.13,0-4.32.02-8.64-.02-12.95-.12-.98-1.11-1.7-2.07-1.6h0ZM39.03,17.31c1.98-.04,3.93,1.24,4.58,3.13.78,2.04.17,4.6-1.65,5.88-2,1.48-5.16,1.17-6.71-.83-1.72-2.13-1.36-5.67.9-7.28.72-.52,1.58-.82,2.46-.89.08,0,.29-.01.42-.01ZM94.24,17.33c.31.17.66-.07.98.06,1.89.31,3.49,1.85,3.86,3.73.39,1.79-.14,3.77-1.56,4.97-1.96,1.72-5.33,1.51-6.97-.56-1.76-2.13-1.39-5.74.91-7.34.8-.56,1.8-.89,2.77-.86h0Z" fill="rgba(5, 22, 42, .98)" stroke-width="0"/>
      <path id="uuid-dccdfa3a-7c97-490b-8327-7a6e957ff6ec" data-name="path414-60" d="M25.17,6.67c-1.71.08-3.29,1.28-4.33,2.61-2.48,2.7-5.21,5.67-7.7,8.36-1.52-1.49-2.3-3.16-3.96-4.52-1.3-.87-1.89-1.43-3.37-1.49-1.55-.01-4.26,0-5.81.01,2.78,3.58,5.76,7.29,8.45,10.93.19.27.3.67,0,.9-2.68,3.31-5.36,6.61-8.06,9.9,2.27,0,4.56.25,6.82-.09,1.48-.39,2.39-1.72,3.38-2.77.9-1.02,1.8-2.04,2.69-3.07-.16.28-.28.55.02.78,1.23,1.72,2.56,3.37,3.97,4.94,1.71,1.38,3.97,1.79,6.12,1.83,1.06.03,2.13,0,3.18-.13.35-.09.82-.44.54-.83-1.35-1.57-2.64-3.2-3.97-4.79-1.44-1.77-2.91-3.52-4.3-5.33-.45-.63-2.01-1.51-1.55-2.23.45-.85,1.25-1.57,1.85-2.33,3.59-4.13,7.18-8.52,10.75-12.67h-4.72s0,0,0,0Z" fill="rgba(5, 22, 42, .98)" stroke-width="0"/>
      <path id="uuid-eee9a996-7337-41de-99b7-286984f90908" data-name="path415-0" d="M22.36,0c-1.62.1-3.08,1.4-3.31,3.02-.29,1.62.69,3.35,2.23,3.92,1.44.61,3.23.11,4.17-1.14,1.11-1.36.97-3.52-.28-4.74-.72-.74-1.78-1.14-2.81-1.06Z" fill="#04162b" isolation="isolate" opacity=".98" stroke-width="0"/>
      <g id="uuid-40c87246-10c1-4e0a-9819-c4f5e1d9e4f3" data-name="g444-4">
        <path id="uuid-8b90de14-09c4-4297-8521-5c1bee910199" data-name="path416-0" d="M41.21,8.17c-.29-.02-.56.07-.81.29l-1.82,1.84c-.74.74-.12,1.82.71,1.84.27,0,.59-.1.81-.32l1.84-1.84c.71-.71.17-1.82-.74-1.82h0ZM79.33,13.42c-4.49,0-7.83,3.9-7.83,8.1s3.58,8.05,7.9,8.05c2.06,0,3.85-.64,5.5-2.13.54-.52.69-1.28.27-1.84s-1.3-.52-1.89-.07c-1.08.96-2.36,1.5-3.88,1.5-2.99,0-5.23-2.53-5.23-5.52,0-3.26,2.4-5.54,5.27-5.54,1.47,0,2.75.59,3.83,1.57.59.42,1.47.49,1.89-.1.42-.56.29-1.35-.27-1.84-1.62-1.47-3.39-2.16-5.57-2.16ZM93.3,13.61c-3.62.8-6.37,4.03-6.37,7.9,0,4.44,3.66,8.05,8.1,8.05s8.14-3.61,8.14-8.05c0-3.63-2.46-6.71-5.75-7.73l-2.1,2.17-2.02-2.35ZM28.11,13.64c-.74,0-1.32.56-1.32,1.3v13.08c0,.74.59,1.32,1.32,1.32s1.35-.59,1.35-1.32v-13.08c0-.74-.61-1.3-1.35-1.3ZM62.35,13.64c-.74,0-1.35.56-1.35,1.3v9.62l-8.49-10.43c-.42-.49-1.08-.59-1.57-.39-.44.2-.81.64-.81,1.25v13.03c0,.74.59,1.32,1.32,1.32s1.35-.59,1.35-1.32v-9.71l8.51,10.45c.47.52.81.59,1.3.59.69,0,1.05-.76,1.05-1.32v-13.08c0-.74-.56-1.3-1.32-1.3ZM67.95,13.64c-.74,0-1.32.56-1.32,1.3v13.08c0,.74.59,1.32,1.32,1.32s1.35-.59,1.35-1.32v-13.08c0-.74-.61-1.3-1.35-1.3ZM37.8,13.67c-3.51.88-6.14,4.06-6.14,7.84,0,4.44,3.66,8.05,8.1,8.05s8.14-3.61,8.14-8.05c0-3.71-2.58-6.83-5.98-7.79l-2.15,2.22c3.1.01,5.47,2.39,5.47,5.57s-2.38,5.52-5.5,5.52-5.42-2.38-5.42-5.52,2.33-5.57,5.42-5.57h0l-1.96-2.28ZM95.03,15.94c3.12,0,5.5,2.38,5.5,5.57s-2.38,5.52-5.5,5.52-5.42-2.38-5.42-5.52,2.33-5.57,5.42-5.57Z" fill="#fff" stroke-width="0"/>
        <path id="uuid-70d8a8f1-545f-4ee7-8a22-bcbb1e7e66b4" data-name="path417-3" d="M26.21,6.99c-1.22.03-2.17.38-3.21,1.24l-8.37,9.09c-.46.39-1.04,0-1.37-.42-1.3-1.35-2.39-2.96-3.75-4.22-1.03-.8-2.32-.62-3.49-.68-1.16-.02-2.32-.01-3.49,0,2.3,2.91,4.69,5.72,6.94,8.68.37.51.85,1.07.8,1.79-.11.64-.64.97-.96,1.46-2.12,2.62-4.24,5.24-6.38,7.84,1.52.04,3.04.09,4.55-.04.85-.12,1.57-.72,2.16-1.41,1.48-1.58,2.9-3.3,4.36-4.94,1.01-1.16,2.01-2.34,3.06-3.45l-2.25,5.09c1.09,1.57,2.33,2.99,3.53,4.47.69.85,2.9,1.63,3.94,1.72,1.4.2,3.88.16,4.46.07l-7.32-8.92c-.58-.79-1.28-1.66-1.26-2.78.08-1.12.87-1.9,1.49-2.65,3.44-3.98,6.91-7.92,10.34-11.91-1.25-.01-2.51,0-3.76,0h0Z" fill="#fff" stroke-width="0"/>
        <circle id="uuid-76267a86-da7a-4768-887f-e2d9ceec5e05" data-name="circle417-2" cx="22.87" cy="3.34" r="3.08" fill="#fff" isolation="isolate" opacity=".98" stroke-width="0"/>
      </g>
    </g>
  </g>
</svg>